#!OML:ASF E:\Mandelcareful walks\Project 1\Capture day 1\Session 1\Subject1.ASF
:FULLY-SPECIFIED
:DEGREES
344
root -9.10763 14.4957 0.229836 -158.358 129.926 -171.876
lowerback 38.3727 -0.479193 1.20108
upperback 9.01431 0.379064 -0.979781
thorax -8.77541 0.443742 -1.86204
lowerneck -28.7802 11.9178 5.48488
upperneck 18.8614 20.2981 -19.9935
head 14.2368 6.92692 -4.25703
rclavicle -3.81667e-014 -1.74931e-014
rhumerus -29.3415 23.475 -86.8343
rradius 63.8004
rwrist -68.5308
rhand -3.69241 -39.1011
rfingers 7.12502
rthumb 22.0493 -67.8642
lclavicle -3.81667e-014 -1.74931e-014
lhumerus 25.7639 -80.2436 70.9728
lradius 51.363
lwrist 5.6084
lhand -28.8021 -16.4905
lfingers 7.12502
lthumb -2.16055 13.4783
rfemur -47.5434 -10.5736 7.5769
rtibia 72.1825
rfoot -32.4227 4.99795
rtoes -10.7278
lfemur -65.0891 13.9514 -18.779
ltibia 52.2681
lfoot -10.7316 8.97518
ltoes -9.39575
345
root -8.94114 14.4752 0.230207 -158.877 130.938 -172.51
lowerback 38.6337 -0.250735 0.873113
upperback 9.01018 0.499659 -1.21728
thorax -8.86431 0.500585 -1.99311
lowerneck -28.6138 12.1665 5.5647
upperneck 18.8046 20.6041 -19.9951
head 14.2356 7.07632 -4.19279
rclavicle -4.29375e-014 1.11319e-014
rhumerus -29.1943 23.3196 -87.0409
rradius 62.7645
rwrist -67.9802
rhand -2.30509 -37.6194
rfingers 7.12502
rthumb 23.3807 -66.2193
lclavicle -4.29375e-014 1.11319e-014
lhumerus 27.7112 -80.4985 69.1815
lradius 50.8671
lwrist 5.48952
lhand -28.3748 -16.4083
lfingers 7.12502
lthumb -1.74793 13.5642
rfemur -47.2662 -10.3838 7.32332
rtibia 72.2865
rfoot -32.5567 5.6653
rtoes -11.0095
lfemur -65.032 14.0397 -18.1103
ltibia 51.8597
lfoot -10.836 9.43391
ltoes -8.74266
346
root -8.78475 14.4243 0.222108 -159.118 131.393 -173.208
lowerback 38.4726 -0.282592 0.730744
upperback 9.03176 0.380166 -1.35617
thorax -8.79126 0.445077 -2.01716
lowerneck -28.5417 12.4338 5.63149
upperneck 18.7502 20.9394 -19.9937
head 14.2564 7.22971 -4.11513
rclavicle 4.09496e-014 -1.19271e-014
rhumerus -28.9168 23.3303 -87.229
rradius 62.1533
rwrist -67.9737
rhand -1.29878 -36.43
rfingers 7.12502
rthumb 24.3458 -64.9036
lclavicle 4.09496e-014 -1.19271e-014
lhumerus 30.1655 -80.6577 66.7245
lradius 50.4234
lwrist 5.37876
lhand -28.6916 -16.8747
lfingers 7.12502
lthumb -2.05389 13.0952
rfemur -47.2835 -10.1864 7.20057
rtibia 72.4619
rfoot -32.6237 5.93773
rtoes -10.1295
lfemur -65.6944 14.037 -17.5799
ltibia 52.1696
lfoot -9.66294 9.12265
ltoes -8.97081
347
root -8.63945 14.3649 0.209983 -158.95 131.544 -173.733
lowerback 38.0274 -0.842516 1.25152
upperback 8.98154 -0.230396 -2.2285
thorax -8.73571 0.168367 -2.97797
lowerneck -28.356 12.7715 6.1892
upperneck 18.5984 20.9844 -19.5735
head 14.1441 7.35084 -4.02738
rclavicle -2.0276e-014 6.61953e-014
rhumerus -28.5922 22.6362 -88.513
rradius 61.5542
rwrist -67.8511
rhand -0.275339 -36.0555
rfingers 7.12502
rthumb 25.3266 -64.3939
lclavicle -2.0276e-014 6.61953e-014
lhumerus 32.773 -81.019 62.9896
lradius 50.0384
lwrist 5.36781
lhand -28.8738 -17.2411
lfingers 7.12502
lthumb -2.22981 12.727
rfemur -47.6434 -10.3686 7.12041
rtibia 72.7478
rfoot -32.7477 6.08784
rtoes -8.13767
lfemur -66.8018 14.0462 -17.3698
ltibia 53.1177
lfoot -7.62305 8.31329
ltoes -8.12181
348
root -8.41461 14.3404 0.20534 -160.165 132.4 -174.733
lowerback 38.3935 -0.97266 1.35672
upperback 9.12927 -0.397884 -2.71056
thorax -8.71552 0.102774 -3.48237
lowerneck -28.3344 12.9379 6.02256
upperneck 18.5328 21.1285 -19.1853
head 14.0417 7.44724 -3.81385
rclavicle -3.35946e-014 6.17226e-014
rhumerus -28.2628 22.2482 -89.0328
rradius 60.8931
rwrist -67.956
rhand -0.972056 -37.5898
rfingers 7.12502
rthumb 24.659 -66.0211
lclavicle -3.35946e-014 6.17226e-014
lhumerus 41.0167 -82.4094 54.1834
lradius 50.316
lwrist 10.1961
lhand -34.4796 -16.5336
lfingers 7.12502
lthumb -7.64247 13.3083
rfemur -46.6045 -10.1871 6.76533
rtibia 72.6859
rfoot -32.9205 7.12472
rtoes -7.00567
lfemur -66.2736 14.1978 -16.6629
ltibia 54.5933
lfoot -7.05297 7.89244
ltoes -6.17508
349
root -8.23745 14.3035 0.191584 -160.81 132.555 -175.59
lowerback 38.5411 -1.17798 1.34796
upperback 9.12808 -0.68376 -2.96727
thorax -8.7922 -0.0264495 -3.63929
lowerneck -28.4238 13.01 5.81539
upperneck 18.6159 21.1613 -18.7137
head 13.9872 7.48432 -3.59362
rclavicle -5.0541e-014 -4.73667e-015
rhumerus -27.8863 21.8674 -89.5095
rradius 60.1391
rwrist -68.2881
rhand -0.258389 -35.4361
rfingers 7.12502
rthumb 25.3429 -63.7722
lclavicle -5.0541e-014 -4.73667e-015
lhumerus 44.3025 -82.7751 50.714
lradius 49.7623
lwrist 10.8471
lhand -35.5736 -16.2912
lfingers 7.12502
lthumb -8.6983 13.5095
rfemur -46.1758 -10.4892 6.78697
rtibia 72.8424
rfoot -32.9477 7.36886
rtoes -9.01353
lfemur -66.7154 14.2263 -16.1926
ltibia 56.1788
lfoot -6.82421 7.13125
ltoes -5.81507
